<svg id="eeQnOycDU2q1" xmlns="http://www.w3.org/2000/svg" xmlns:xlink="http://www.w3.org/1999/xlink" viewBox="0 0 254 86" shape-rendering="geometricPrecision" text-rendering="geometricPrecision" project-id="27e082e6fb0b43648e67e822ca954df9" export-id="d9bcad74706e4885accf4a204234298b" cached="false"><g transform="translate(.173412-1.95944)"><path d="M19.77419,65.84389c1.92483,0,13.11537,1.7163,13.42282.3328c1.5023-6.76033,1.94587-14.05571,3.32797-20.96622.1277-.63848,1.11739-6.61318,1.33119-6.65594c1.68937-.33788,3.94589,9.27033,4.32636,10.53857.47243,1.57478,6.15327,17.38691,6.21221,17.41638c1.37359.6868,6.503111.240012,8.334811.406522c1.42299.12936,3.876786.411013,5.175311-.36112.765934-.455442,1.646634-6.311349,1.75116-7.511366C65.672353,35.894903,66.062079,41.927613,68.1407,31.78765c.281676-1.374076,1.94377-4.92912,1.55305-6.10128-.0759-.22769-1.47805-.11093-1.66399-.11093-3.87643,0-9.66478-.55467-10.64951,2.55144-1.854709,5.850263-.366202,7.000682-1.587542,13.107352-.12975.648728-1.523597,11.047786-2.321347,11.047786c0-.124068,0,1.032244-1.859591-3.632658-2.300558-5.771095-2.25002-5.32782-3.21704-7.98713-1.33444-3.6697-2.48024-12.66449-5.43569-15.19773-1.93108-1.65522-9.04977-.68136-11.42603-.44373-1.13447.11345-7.32987-.46105-7.8762.22187-.24634.30792,2.10985,3.11038,2.32958,3.54984.7119,1.42379.07781,2.93893-.22187,4.43729-2.08852,10.44261-1.9647,23.04919-5.87942,32.83598" transform="translate(.999467-.838034)" fill="#ccf381" stroke-width="0.508"/><path d="M89.15506,25.688664c4.47501,0,8.99174.770066,13.48136-.127854.49584-.09917,3.186763-.2877,3.647083,0c1.52265.95165-1.362371,7.170474-1.721173,8.78696-3.079077,13.871972-3.86949,16.30623-4.6944,24.55534-.20619,2.06188.599885,7.82401-2.40739,7.82401-2.016783,0-10.79383,1.0961-12.39804-.24074-1.59921-1.33268,1.07327-8.97741,1.44443-10.83324c1.29325-6.46626,1.221759-5.493199,3.898822-17.57393.445616-2.010921,1.670718-6.21677,1.277058-8.1851-.31921-1.59605-2.16767-2.65326-2.52775-4.45366" transform="translate(.564985-.297295)" fill="#ccf381" stroke-width="0.508"/><path d="M155.83966,33.0237c-.39368.9842-1.64479,4.04488-1.08332,5.05551.53855.9694,5.065673.0764,6.01847,0c5.111501-.409868,7.712555.589164,8.050568-6.721182.067688-1.463918-4.45451-5.630139-6.245028-6.037958-8.534527-1.943874-6.168008-.728922-14.950108-.728922-1.88413,0-22.389943-.723648-23.660943.728922-1.23098,1.40684,1.854601,1.942806,2.018781,3.1296.60184,4.350478-1.762471,15.00855-2.018781,17.82799-.51237,5.63608-.870379,5.04383-1.833039,10.33843-.20165,1.10909-2.646274,2.613637-2.448994,3.600047.28617,1.43085,2.448994,4.25631,6.869677,5.530931c6.813046,1.964414,26.758113,2.779936,35.541927.859672.227861-.049814,4.83369-13.04022,1.08332-13.7221-2.35858-.42883-6.071998-.24074-10.47213-.24074-2.040817,0,0,3.97219-1.20369,5.53699-1.566132,2.035975-13.45853,1.57912-16.00912,1.32406-.16787-.01679-1.05633.05646-1.20369-.12037-.72816-.87379,1.00723-14.102438,1.20369-15.183008.51138-2.81258,1.22645-10.598782,2.40738-11.779712.39097-.39097,1.48022-.04457,1.92591,0c5.30438.53044,10.65256.60185,16.00912.60185" transform="translate(.282492 0)" fill="#ccf381" stroke-width="0.508"/><path d="M188.88528,26.51745c2.69432,4.49052-1.52124,24.77065-2.67814,30.55511-.30779,1.53894-3.13455,8.33446-1.33907,9.61695.79842.5703,3.58364.27045,4.62587.3652c9.25501.84136,9.56522-1.74386,10.34735-10.34735.10551-1.16065-.09892-8.21871,1.826-7.79094c1.58922.35316,3.57326,5.11642,4.38241,6.33014c5.01896,7.52843,8.39769,13.75717,16.79922,8.15614c1.34722-.89814,3.14897-2.13572,4.13894-3.40854c1.90626-2.45091-12.8638-12.35427-13.13373-14.78369-.06131-.55179,11.329665-11.612852,13.140955-12.820382c1.5184-1.01226,6.368825-3.757278,4.253455-5.872648-1.32307-1.32307-3.72353-1.72042-5.35627-2.5564-9.655691-4.943815-10.927913,2.717193-17.89482,10.10388-1.011117,1.07204-3.28482,6.20821-4.50414,6.33014-3.02179.30218,2.07132-12.32136,1.21733-14.24282-1.07168-2.41129-16.71048-2.59965-16.06882.60867" transform="matrix(1.041879 0.02601-.022934 0.918698-6.675293-.289339)" fill="#ccf381" stroke-width="0.508"/></g></svg>
